<?xml version="1.0" encoding="utf-8"?>
<!-- Generator: Adobe Illustrator 24.1.1, SVG Export Plug-In . SVG Version: 6.00 Build 0)  -->
<svg version="1.1" id="Layer_1" xmlns="http://www.w3.org/2000/svg" xmlns:xlink="http://www.w3.org/1999/xlink" x="0px" y="0px"
	 viewBox="0 0 300 300" style="enable-background:new 0 0 300 300;" xml:space="preserve">
<style type="text/css">
	.st0{fill:#689F63;}
	.st1{fill:#333333;}
	.st2{clip-path:url(#SVGID_2_);}
	.st3{fill:url(#SVGID_3_);}
	.st4{clip-path:url(#SVGID_5_);}
	.st5{fill:url(#SVGID_6_);}
	.st6{clip-path:url(#SVGID_8_);}
	.st7{fill:url(#SVGID_9_);}
</style>
<path class="st0" d="M148.3,241c-1,0-2-0.3-2.8-0.8l-9-5.4c-1.4-0.8-0.7-1-0.2-1.2c1.4-0.5,2.8-1.1,4.1-1.9c0.2-0.1,0.5-0.1,0.7,0
	l6.9,4.1c0.3,0.1,0.6,0.1,0.8,0l27.1-15.6c0.3-0.2,0.4-0.4,0.4-0.7v-31.3c0-0.3-0.2-0.6-0.4-0.7L148.7,172c-0.3-0.1-0.6-0.1-0.8,0
	l-27.1,15.6c-0.3,0.2-0.4,0.4-0.4,0.7v31.3c0,0.3,0.2,0.6,0.4,0.7l7.4,4.3c4,2,6.5-0.4,6.5-2.7V191c0-0.4,0.3-0.8,0.8-0.8
	c0,0,0,0,0,0h3.4c0.4,0,0.8,0.3,0.8,0.8c0,0,0,0,0,0v30.9c0,5.4-2.9,8.5-8,8.5c-1.6,0-2.8,0-6.2-1.7l-7.1-4.1
	c-1.8-1-2.8-2.9-2.8-4.9v-31.3c0-2,1.1-3.9,2.8-4.9l27.1-15.6c1.8-1,3.9-1,5.7,0l27.1,15.7c1.8,1,2.8,2.9,2.8,4.9v31.3
	c0,2-1.1,3.9-2.8,4.9l-27.1,15.6C150.3,240.7,149.3,241,148.3,241"/>
<path class="st0" d="M156.6,219.5c-11.9,0-14.3-5.4-14.3-10c0-0.4,0.3-0.8,0.8-0.8c0,0,0,0,0,0h3.5c0.4,0,0.7,0.3,0.8,0.7
	c0.5,3.6,2.1,5.4,9.3,5.4c5.7,0,8.1-1.3,8.1-4.3c0-1.7-0.7-3-9.6-3.9c-7.4-0.7-12-2.4-12-8.3c0-5.5,4.6-8.7,12.3-8.7
	c8.7,0,13,3,13.5,9.5c0,0.2-0.1,0.4-0.2,0.6c-0.2,0.2-0.4,0.2-0.6,0.3h-3.5c-0.4,0-0.7-0.3-0.8-0.6c-0.8-3.8-2.9-5-8.5-5
	c-6.2,0-7,2.2-7,3.8c0,2,0.9,2.5,9.3,3.7c8.3,1.1,12.3,2.7,12.3,8.5C170.1,216.1,165.2,219.5,156.6,219.5 M189.6,186.3h0.9
	c0.4,0.1,0.8-0.3,0.9-0.7c0,0,0-0.1,0-0.1c0-0.8-0.5-0.8-0.9-0.8h-0.9L189.6,186.3z M188.5,183.8h2c0.7,0,2,0,2,1.5
	c0.1,0.7-0.4,1.3-1.1,1.4c0.8,0.1,0.9,0.6,1,1.3c0,0.5,0.1,1,0.3,1.5h-1.2c0-0.3-0.2-1.8-0.2-1.8c-0.1-0.3-0.2-0.5-0.6-0.5h-1v2.3
	h-1.1L188.5,183.8z M186.1,186.7c1.2,1.2,3.2,1.2,4.4,0c1.2-1.2,1.2-3.2,0-4.4c-1.2-1.2-3.2-1.2-4.4,0
	C184.9,183.5,184.9,185.5,186.1,186.7 M195.7,186.7c2.9,0,5.2-2.3,5.2-5.2c0-2.9-2.3-5.2-5.2-5.2s-5.2,2.3-5.2,5.2
	C190.5,184.4,192.8,186.7,195.7,186.7"/>
<path class="st1" d="M64.4,118.7c0-1.2-0.7-2.4-1.7-3L33.9,99.1c-0.5-0.3-1-0.4-1.6-0.5H32c-0.6,0-1.1,0.2-1.6,0.5L1.7,115.7
	c-1.1,0.6-1.7,1.8-1.7,3l0.1,44.5c0,0.6,0.3,1.2,0.9,1.5c0.5,0.3,1.2,0.3,1.7,0l17.1-9.8c1.1-0.6,1.7-1.8,1.7-3v-20.8
	c0-1.2,0.7-2.4,1.7-3l7.3-4.2c0.5-0.3,1.1-0.5,1.7-0.5c0.6,0,1.2,0.2,1.7,0.5l7.3,4.2c1.1,0.6,1.7,1.8,1.7,3v20.8
	c0,1.2,0.7,2.4,1.7,3l17.1,9.8c0.5,0.3,1.2,0.3,1.7,0c0.5-0.3,0.9-0.9,0.9-1.5L64.4,118.7z M199.9,141.8c0,0.3-0.2,0.6-0.4,0.8
	l-9.9,5.7c-0.3,0.2-0.6,0.2-0.9,0l-9.9-5.7c-0.3-0.2-0.4-0.4-0.4-0.8v-11.4c0-0.3,0.2-0.6,0.4-0.8l9.9-5.7c0.3-0.2,0.6-0.2,0.9,0
	l9.9,5.7c0.3,0.2,0.4,0.4,0.4,0.8L199.9,141.8z M202.6,57.5c-0.8-0.5-1.9-0.2-2.4,0.7c-0.1,0.3-0.2,0.6-0.2,0.8v44.1
	c0,0.7-0.5,1.2-1.2,1.2c-0.2,0-0.4-0.1-0.6-0.2L191,100c-1.1-0.6-2.4-0.6-3.5,0l-28.7,16.6c-1.1,0.6-1.7,1.8-1.7,3v33.2
	c0,1.2,0.7,2.4,1.7,3l28.7,16.6c1.1,0.6,2.4,0.6,3.5,0l28.7-16.6c1.1-0.6,1.7-1.8,1.7-3V70.1c0-1.3-0.7-2.4-1.8-3L202.6,57.5z
	 M298.3,130.2c1.1-0.6,1.7-1.8,1.7-3v-8c0-1.2-0.7-2.4-1.7-3l-28.6-16.6c-1.1-0.6-2.4-0.6-3.5,0l-28.7,16.6c-1.1,0.6-1.7,1.8-1.7,3
	v33.2c0,1.2,0.7,2.4,1.7,3l28.5,16.3c1.1,0.6,2.3,0.6,3.4,0l17.3-9.6c0.8-0.5,1.1-1.5,0.7-2.4c-0.2-0.3-0.4-0.5-0.7-0.7l-28.9-16.6
	c-0.5-0.3-0.9-0.9-0.9-1.5v-10.4c0-0.6,0.3-1.2,0.9-1.5l9-5.2c0.5-0.3,1.2-0.3,1.7,0l9,5.2c0.5,0.3,0.9,0.9,0.9,1.5v8.2
	c0,1,0.8,1.7,1.7,1.7c0.3,0,0.6-0.1,0.9-0.2L298.3,130.2z"/>
<path class="st0" d="M267.6,128.6c0.2-0.1,0.5-0.1,0.7,0l5.5,3.2c0.2,0.1,0.3,0.3,0.3,0.6v6.4c0,0.2-0.1,0.5-0.3,0.6l-5.5,3.2
	c-0.2,0.1-0.5,0.1-0.7,0l-5.5-3.2c-0.2-0.1-0.3-0.3-0.3-0.6v-6.4c0-0.2,0.1-0.5,0.3-0.6L267.6,128.6z"/>
<g>
	<defs>
		<path id="SVGID_1_" d="M109,99.7l-28.6,16.5c-1.1,0.6-1.7,1.8-1.7,3v33c0,1.2,0.7,2.4,1.7,3l28.6,16.5c1.1,0.6,2.4,0.6,3.5,0
			l28.6-16.5c1.1-0.6,1.7-1.8,1.7-3v-33c0-1.2-0.7-2.4-1.7-3l-28.6-16.5C111.4,99.1,110.1,99.1,109,99.7"/>
	</defs>
	<clipPath id="SVGID_2_">
		<use xlink:href="#SVGID_1_"  style="overflow:visible;"/>
	</clipPath>
	<g class="st2">
		
			<linearGradient id="SVGID_3_" gradientUnits="userSpaceOnUse" x1="-48.2711" y1="-50.276" x2="-47.4578" y2="-50.276" gradientTransform="matrix(-50.7531 103.536 -103.536 -50.7531 -7523.9302 2539.8022)">
			<stop  offset="0.3" style="stop-color:#3E863D"/>
			<stop  offset="0.5" style="stop-color:#55934F"/>
			<stop  offset="0.8" style="stop-color:#5AAD45"/>
		</linearGradient>
		<path class="st3" d="M171.6,113.4L91.1,73.9l-41.3,84.2l80.5,39.5L171.6,113.4z"/>
	</g>
</g>
<g>
	<defs>
		<path id="SVGID_4_" d="M79.4,154.3c0.3,0.4,0.6,0.7,1,0.9l24.5,14.2l4.1,2.3c0.6,0.3,1.3,0.5,2,0.5c0.2,0,0.5-0.1,0.7-0.1
			l30.1-55.2c-0.2-0.3-0.5-0.5-0.8-0.6l-18.7-10.8l-9.9-5.7c-0.3-0.2-0.6-0.3-0.9-0.4L79.4,154.3z"/>
	</defs>
	<clipPath id="SVGID_5_">
		<use xlink:href="#SVGID_4_"  style="overflow:visible;"/>
	</clipPath>
	<g class="st4">
		
			<linearGradient id="SVGID_6_" gradientUnits="userSpaceOnUse" x1="-48.235" y1="-51.5197" x2="-47.7071" y2="-51.5197" gradientTransform="matrix(142.4074 -105.2221 105.2221 142.4074 12363.0557 2424.9509)">
			<stop  offset="0.57" style="stop-color:#3E863D"/>
			<stop  offset="0.72" style="stop-color:#619857"/>
			<stop  offset="1" style="stop-color:#76AC64"/>
		</linearGradient>
		<path class="st5" d="M44.6,125.1l56.8,76.9l75.2-55.5l-56.9-76.9L44.6,125.1z"/>
	</g>
</g>
<g>
	<defs>
		<path id="SVGID_7_" d="M110.4,99.3c-0.5,0-1,0.2-1.4,0.4l-28.5,16.4l30.7,56c0.4-0.1,0.8-0.2,1.2-0.4l28.6-16.5
			c0.9-0.5,1.5-1.4,1.7-2.4l-31.3-53.5c-0.2,0-0.5-0.1-0.7-0.1C110.6,99.3,110.5,99.3,110.4,99.3"/>
	</defs>
	<clipPath id="SVGID_8_">
		<use xlink:href="#SVGID_7_"  style="overflow:visible;"/>
	</clipPath>
	<g class="st6">
		
			<linearGradient id="SVGID_9_" gradientUnits="userSpaceOnUse" x1="-48.1866" y1="-51.5351" x2="-47.7079" y2="-51.5351" gradientTransform="matrix(129.8891 0 0 129.8891 6339.4185 6829.5259)">
			<stop  offset="0.16" style="stop-color:#6BBF47"/>
			<stop  offset="0.38" style="stop-color:#79B461"/>
			<stop  offset="0.47" style="stop-color:#75AC64"/>
			<stop  offset="0.7" style="stop-color:#659E5A"/>
			<stop  offset="0.9" style="stop-color:#3E863D"/>
		</linearGradient>
		<path class="st7" d="M80.5,99.3v72.9h62.2V99.3H80.5z"/>
	</g>
</g>
</svg>
