<svg xmlns="http://www.w3.org/2000/svg" xmlns:xlink="http://www.w3.org/1999/xlink" viewBox="0 0 300 300"><defs><linearGradient id="a" x1="1.0139" y1="300.98521" x2="1.09412" y2="300.90561" gradientTransform="matrix(1849.26742, 0, 0, -1853.39167, -1846.85154, 557872.5968)" gradientUnits="userSpaceOnUse"><stop offset="0" stop-color="#387eb8"/><stop offset="1" stop-color="#366994"/></linearGradient><linearGradient id="b" x1="0.71475" y1="301.27269" x2="0.8009" y2="301.19107" gradientTransform="matrix(1849.26712, 0, 0, -1853.39182, -1202.38822, 558500.01252)" gradientUnits="userSpaceOnUse"><stop offset="0" stop-color="#ffe052"/><stop offset="1" stop-color="#ffc331"/></linearGradient></defs><title>Python logo 300X300</title><path d="M148.91926,1.56c-76.15885,0-71.40361,33.027-71.40361,33.027l.08457,34.217h72.677V79.07684H48.73405S0,73.54982,0,150.39352c0,76.84606,42.53628,74.12074,42.53628,74.12074h25.3855V188.85473s-1.36854-42.53627,41.85729-42.53627h72.08261s40.49814.65431,40.49814-39.14019V41.38036S228.51061,1.56,148.91926,1.56ZM108.84518,24.57025a13.06279,13.06279,0,0,1,13.07453,13.051q0,.01176,0,.0235a13.06279,13.06279,0,0,1-13.051,13.07454h-.0235a13.06279,13.06279,0,0,1-13.07453-13.051q0-.01176,0-.02351a13.06278,13.06278,0,0,1,13.051-13.07453Z" fill="url(#a)"/><path d="M151.08191,300c76.15885,0,71.40361-33.027,71.40361-33.027l-.08458-34.2158H149.72276V222.48436H251.26594S300,228.01138,300,151.16531c0-76.84488-42.53627-74.11955-42.53627-74.11955h-25.3855v35.65835s1.36853,42.53627-41.8573,42.53627h-72.0826s-40.49815-.65433-40.49815,39.14137v65.79907S71.49057,300,151.08074,300ZM191.156,276.99212a13.0628,13.0628,0,0,1-13.07454-13.051v-.02352a13.06279,13.06279,0,0,1,13.04986-13.0757h.02468a13.06278,13.06278,0,0,1,13.07454,13.051v.02351a13.06278,13.06278,0,0,1-13.051,13.07454H191.156Z" fill="url(#b)"/></svg>