<svg xmlns="http://www.w3.org/2000/svg" viewBox="0 0 300 300"><title>Redis logo 300X300</title><path d="M288.2461,241.13913c-16.01016,8.34493-98.94609,42.44532-116.60275,51.65039-17.65664,9.20625-27.46523,9.11719-41.41406,2.44922C116.28164,288.57076,28.023,252.92,12.12422,245.32038,4.17891,241.52351,0,238.31727,0,235.28915V204.96572S114.90235,179.95205,133.452,173.297c18.54844-6.65508,24.98438-6.89532,40.76954-1.11328C190.009,177.96806,284.39884,194.99775,300,200.71181l-.007,29.89452c.00235,2.99766-3.59766,6.28594-11.74687,10.53282" fill="#912626"/><path d="M288.24023,210.995c-16.009,8.3414-98.94258,42.443-116.59922,51.64687-17.65546,9.20741-27.46407,9.11718-41.41172,2.44921-13.94882-6.66329-102.2039-42.31993-118.10156-49.91484-15.89765-7.59961-16.23047-12.82968-.61406-18.94453,15.61641-6.11719,103.3875-40.55273,121.93945-47.20781,18.54843-6.65273,24.98321-6.89531,40.76837-1.11093,15.78632,5.782,98.22539,38.5957,113.82423,44.30859,15.60469,5.71992,16.20351,10.42968.19453,18.77344" fill="#c6302b"/><path d="M288.2461,192.0739C272.23594,200.42,189.3,234.51923,171.64335,243.7278c-17.65664,9.20274-27.46523,9.11367-41.41406,2.44571C116.28047,239.50907,28.023,203.85477,12.12422,196.25516,4.17891,192.45828,0,189.25672,0,186.22742V155.90047s114.90235-25.0125,133.452-31.66758c18.54844-6.65508,24.98438-6.89649,40.76954-1.11328C190.01015,128.90281,284.4,145.929,300,151.64422l-.007,29.898c.00235,2.99649-3.59766,6.28477-11.74687,10.53164" fill="#912626"/><path d="M288.24023,161.92976c-16.009,8.34376-98.94258,42.443-116.59922,51.65039-17.65546,9.20391-27.46407,9.11366-41.41172,2.44571-13.94882-6.66329-102.2039-42.31875-118.10156-49.91484-15.89765-7.59727-16.23047-12.82852-.61406-18.94571,15.61641-6.11366,103.38868-40.55156,121.93945-47.20546,18.54843-6.65391,24.98321-6.89532,40.76837-1.11211,15.78632,5.782,98.22539,38.59335,113.82423,44.30859,15.60469,5.71875,16.20351,10.42969.19453,18.77343" fill="#c6302b"/><path d="M288.2461,141.18992c-16.01016,8.34376-98.94609,42.44532-116.60275,51.65391-17.65664,9.20391-27.46523,9.11367-41.41406,2.44571-13.94882-6.66445-102.20625-42.31992-118.10507-49.916C4.17891,141.57313,0,138.37039,0,135.34461V105.01649S114.90235,80.00516,133.452,73.35126c18.54844-6.65626,24.98438-6.89532,40.76954-1.11329C190.01015,78.02117,284.4,95.04734,300,100.76258l-.007,29.89687c.00235,2.99414-3.59766,6.28243-11.74687,10.53047" fill="#912626"/><path d="M288.24023,111.04578c-16.009,8.34376-98.94258,42.44532-116.59922,51.64922-17.65546,9.20391-27.46407,9.11367-41.41172,2.44921-13.94765-6.668-102.2039-42.32108-118.10038-49.91835-15.89883-7.59609-16.23047-12.82852-.61524-18.94453,15.61641-6.11485,103.38868-40.548,121.93945-47.2043,18.54843-6.65508,24.98321-6.89414,40.76837-1.11094,15.78632,5.78321,98.22539,38.59454,113.82423,44.30977,15.60469,5.71406,16.20351,10.42617.19453,18.76992" fill="#c6302b"/><path d="M186.65977,81.54617l-25.793,2.67774L155.093,98.11766,145.7672,82.61375,115.984,79.93719l22.22345-8.01446-6.668-12.30234,20.80665,8.1375L171.961,61.336,166.6594,74.05672l20.00039,7.48945m-33.10667,67.40391L105.416,128.98484,174.39258,118.397l-20.83946,30.55312M86.81484,89.26883c20.36133,0,36.86719,6.39844,36.86719,14.28984,0,7.89375-16.50586,14.291-36.86719,14.291s-36.86718-6.39844-36.86718-14.291c0-7.8914,16.50586-14.28984,36.86718-14.28984" fill="#fff"/><path d="M217.14258,85.34422l40.82343,16.132-40.78828,16.1168-.03515-32.25" fill="#621b1c"/><path d="M171.97852,103.20945l45.16407-17.86523.03516,32.24883-4.42853,1.732-40.7707-16.11562" fill="#9a2928"/></svg>