<svg xmlns="http://www.w3.org/2000/svg" xmlns:xlink="http://www.w3.org/1999/xlink" viewBox="0 0 300 300"><defs><linearGradient id="a" x1="0.87653" y1="301.0887" x2="0.84459" y2="301.14513" gradientTransform="matrix(1981.58115, 0, 0, -1980.09684, -1473.33407, 596511.98494)" gradientUnits="userSpaceOnUse"><stop offset="0" stop-color="#fb7655"/><stop offset="0.41" stop-color="#e42b1e"/><stop offset="0.99" stop-color="#900"/><stop offset="1" stop-color="#900"/></linearGradient><linearGradient id="b" x1="-1.49138" y1="301.9455" x2="-1.62988" y2="301.99564" gradientTransform="matrix(588.89, 0, 0, -1091.47927, 1173.36007, 329800.59367)" gradientUnits="userSpaceOnUse"><stop offset="0" stop-color="#871101"/><stop offset="0.99" stop-color="#911209"/><stop offset="1" stop-color="#911209"/></linearGradient><linearGradient id="c" x1="0.84526" y1="310.0144" x2="0.80091" y2="310.26934" gradientTransform="matrix(1838.88944, 0, 0, -214.68674, -1324.50039, 66886.57504)" xlink:href="#b"/><linearGradient id="d" x1="0.82733" y1="302.41214" x2="0.84719" y2="302.32547" gradientTransform="matrix(636.89315, 0, 0, -948.15283, -468.3308, 286926.64484)" gradientUnits="userSpaceOnUse"><stop offset="0" stop-color="#fff"/><stop offset="0.23" stop-color="#e57252"/><stop offset="0.46" stop-color="#de3b20"/><stop offset="0.99" stop-color="#a60003"/><stop offset="1" stop-color="#a60003"/></linearGradient><linearGradient id="e" x1="0.42809" y1="301.64916" x2="0.43262" y2="301.56876" gradientTransform="matrix(1028.41872, 0, 0, -1043.12449, -294.69465, 314774.61823)" gradientUnits="userSpaceOnUse"><stop offset="0" stop-color="#fff"/><stop offset="0.23" stop-color="#e4714e"/><stop offset="0.56" stop-color="#be1a0d"/><stop offset="0.99" stop-color="#a80d00"/><stop offset="1" stop-color="#a80d00"/></linearGradient><linearGradient id="f" x1="-0.39591" y1="301.27905" x2="-0.38077" y2="301.18637" gradientTransform="matrix(921.01694, 0, 0, -648.55221, 587.37999, 195434.66821)" gradientUnits="userSpaceOnUse"><stop offset="0" stop-color="#fff"/><stop offset="0.18" stop-color="#e46342"/><stop offset="0.4" stop-color="#c82410"/><stop offset="0.99" stop-color="#a80d00"/><stop offset="1" stop-color="#a80d00"/></linearGradient><linearGradient id="g" x1="-0.76745" y1="300.95459" x2="-0.68048" y2="301.08123" gradientTransform="matrix(691.01891, 0, 0, -237.2921, 710.4742, 71432.4545)" gradientUnits="userSpaceOnUse"><stop offset="0" stop-color="#fff"/><stop offset="0.54" stop-color="#c81f11"/><stop offset="0.99" stop-color="#bf0905"/><stop offset="1" stop-color="#bf0905"/></linearGradient><linearGradient id="h" x1="1.02767" y1="302.55738" x2="1.05554" y2="302.48756" gradientTransform="matrix(177.49306, 0, 0, -709.35708, -176.49306, 214793.99293)" gradientUnits="userSpaceOnUse"><stop offset="0" stop-color="#fff"/><stop offset="0.31" stop-color="#de4024"/><stop offset="0.99" stop-color="#bf190b"/><stop offset="1" stop-color="#bf190b"/></linearGradient><linearGradient id="i" x1="0.92541" y1="300.88836" x2="1.07598" y2="301.04341" gradientTransform="matrix(1544.41479, 0, 0, -1542.2132, -1457.32212, 464269.69083)" gradientUnits="userSpaceOnUse"><stop offset="0" stop-color="#bd0012"/><stop offset="0.07" stop-color="#fff"/><stop offset="0.17" stop-color="#fff"/><stop offset="0.27" stop-color="#c82f1c"/><stop offset="0.33" stop-color="#820c01"/><stop offset="0.46" stop-color="#a31601"/><stop offset="0.72" stop-color="#b31301"/><stop offset="0.99" stop-color="#e82609"/><stop offset="1" stop-color="#e82609"/></linearGradient><linearGradient id="j" x1="0.70503" y1="302.33461" x2="0.64858" y2="302.35279" gradientTransform="matrix(1240.83042, 0, 0, -951.17018, -724.80079, 287831.46902)" gradientUnits="userSpaceOnUse"><stop offset="0" stop-color="#8c0c01"/><stop offset="0.54" stop-color="#990c00"/><stop offset="0.99" stop-color="#a80d0e"/><stop offset="1" stop-color="#a80d0e"/></linearGradient><linearGradient id="k" x1="-0.35635" y1="301.61018" x2="-0.42413" y2="301.66426" gradientTransform="matrix(917.98976, 0, 0, -1031.18218, 597.43792, 311190.78412)" gradientUnits="userSpaceOnUse"><stop offset="0" stop-color="#7e110b"/><stop offset="0.99" stop-color="#9e0c00"/><stop offset="1" stop-color="#9e0c00"/></linearGradient><linearGradient id="l" x1="-0.82096" y1="300.92207" x2="-0.86078" y2="300.96356" gradientTransform="matrix(778.26891, 0, 0, -798.66504, 932.1014, 240409.35308)" gradientUnits="userSpaceOnUse"><stop offset="0" stop-color="#79130d"/><stop offset="0.99" stop-color="#9e120b"/><stop offset="1" stop-color="#9e120b"/></linearGradient><radialGradient id="m" cx="-0.42869" cy="302.44424" r="0.08386" gradientTransform="matrix(909.23079, 0, 0, -475.10442, 607.56395, 143813.635)" gradientUnits="userSpaceOnUse"><stop offset="0" stop-color="#a80d00"/><stop offset="0.99" stop-color="#7e0e08"/><stop offset="1" stop-color="#7e0e08"/></radialGradient><radialGradient id="n" cx="0.27411" cy="302.76568" r="0.10654" gradientTransform="matrix(951.41431, 0, 0, -740.63347, -148.60505, 224459.91781)" gradientUnits="userSpaceOnUse"><stop offset="0" stop-color="#a30c00"/><stop offset="0.99" stop-color="#800e08"/><stop offset="1" stop-color="#800e08"/></radialGradient><linearGradient id="o" x1="0.81137" y1="302.73447" x2="0.74693" y2="302.84263" gradientTransform="matrix(391.91624, 0, 0, -792.3398, -277.6066, 240168.20235)" gradientUnits="userSpaceOnUse"><stop offset="0" stop-color="#8b2114"/><stop offset="0.43" stop-color="#9e100a"/><stop offset="0.99" stop-color="#b3100c"/><stop offset="1" stop-color="#b3100c"/></linearGradient><linearGradient id="p" x1="-0.93277" y1="300.98434" x2="-0.85851" y2="300.90587" gradientTransform="matrix(762.62357, 0, 0, -318.554, 945.50075, 95895.43182)" gradientUnits="userSpaceOnUse"><stop offset="0" stop-color="#b31000"/><stop offset="0.44" stop-color="#910f08"/><stop offset="0.99" stop-color="#791c12"/><stop offset="1" stop-color="#791c12"/></linearGradient></defs><title>Ruby logo 300X300</title><path d="M232.42348,198.29331,61.14288,300l221.7773-15.05061L300,61.32179,232.42232,198.29213Z" fill="url(#a)"/><path d="M283.28272,284.79637,264.2208,153.23209l-51.92209,68.56168,70.984,63.00376Z" fill="url(#b)"/><path d="M283.54048,284.79637,143.89123,273.83473l-82.008,25.87805,221.65726-14.91643Z" fill="url(#c)"/><path d="M62.081,299.74222,96.968,185.45316,20.19774,201.86675,62.0798,299.741Z" fill="url(#d)"/><path d="M212.28578,222.17043,180.1848,96.436,88.32157,182.54707l123.96421,39.62571Z" fill="url(#e)"/><path d="M292.71774,98.20621,205.88039,27.28342,181.69959,105.459,292.71772,98.2062Z" fill="url(#f)"/><path d="M252.108,1.99623l-51.07226,28.225L168.81355,1.6184l83.29449.379Z" fill="url(#g)"/><path d="M0,240.20478l21.39477-39.01954-17.307-46.4854Z" fill="url(#h)"/><path d="M2.93785,153.23209l17.4129,49.39148,75.66266-16.97505,86.38183-80.2813,24.37854-77.43291L168.38865.831,103.12852,25.25423c-20.56144,19.12429-60.459,56.96327-61.89736,57.6742-1.4242.72739-26.34652,47.83309-38.29331,70.30366Z" fill="#fff"/><path d="M64.07957,64.50093C108.64171,20.31779,166.08875-5.78626,188.13442,16.45715c22.0339,22.24341-1.3324,76.29825-45.89454,120.46727C97.67773,181.09226,40.9428,208.63464,18.91125,186.39124c-22.04566-22.2281.60617-77.72128,45.16832-121.8903Z" fill="url(#i)"/><path d="M62.081,299.69631,96.69491,185.04354,211.649,221.97385c-41.56308,38.97482-87.79072,71.92326-149.568,77.72245Z" fill="url(#j)"/><path d="M182.54707,105.14124,212.0586,222.03506c34.71987-36.5066,65.88042-75.75329,81.14172-124.29731l-110.65208,7.40349Z" fill="url(#k)"/><path d="M292.899,98.32744c11.81142-35.64265,14.53624-86.77613-41.15585-96.27l-45.698,25.24129Z" fill="url(#l)"/><path d="M0,239.69043c1.63606,58.82651,44.07721,59.70339,62.15631,60.21893L20.39548,202.38111Z" fill="#9e1209"/><path d="M182.71185,105.32367c26.67961,16.39831,80.44963,49.33145,81.53955,49.93645,1.69492.95338,23.18151-36.23352,28.05791-57.25047Z" fill="url(#m)"/><path d="M96.649,185.04354l46.27236,89.275c27.36111-14.83874,48.78766-32.91783,68.40984-52.28342L96.649,185.04356Z" fill="url(#n)"/><path d="M20.21422,202.50234l-6.556,78.06968c12.37053,16.89853,29.3903,18.36746,47.24106,17.05037C47.98376,265.47667,22.1822,201.20055,20.21422,202.50234Z" fill="url(#o)"/><path d="M205.77448,27.49528l91.9256,12.90019c-4.907-20.78861-19.97292-34.20433-45.65325-38.39807L205.77446,27.49528Z" fill="url(#p)"/></svg>