<svg xmlns="http://www.w3.org/2000/svg" xmlns:xlink="http://www.w3.org/1999/xlink" viewBox="0 0 300 300"><defs><linearGradient id="a" x1="1.03803" y1="298.00681" x2="1.15573" y2="298.00681" gradientTransform="translate(-1537 -171678.25) scale(1538 576.75)" gradientUnits="userSpaceOnUse"><stop offset="0" stop-color="#4f4f4f"/><stop offset="1"/></linearGradient><linearGradient id="b" x1="1.03803" y1="299.18322" x2="1.15573" y2="299.18322" gradientTransform="translate(-1537 -172447.25) scale(1538 576.75)" xlink:href="#a"/><linearGradient id="c" x1="1.03803" y1="299.35701" x2="1.15573" y2="299.35701" gradientTransform="translate(-1537 -287605) scale(1538 961.25)" gradientUnits="userSpaceOnUse"><stop offset="0" stop-color="#c40000"/><stop offset="1" stop-color="red"/></linearGradient><linearGradient id="d" x1="1.03803" y1="300.06286" x2="1.15573" y2="300.06286" gradientTransform="translate(-1537 -288374) scale(1538 961.25)" xlink:href="#c"/><linearGradient id="e" x1="1.03803" y1="298.65117" x2="1.15573" y2="298.65117" gradientTransform="translate(-1537 -286836) scale(1538 961.25)" xlink:href="#c"/></defs><title>Scala logo 300X300</title><path d="M59.49317,185.86647v22.6267c0,3.814,82.28839,10.20182,135.90166,22.62671,25.8991-6.00315,45.112-13.41268,45.112-22.62671v-22.6267c0-9.20906-19.2129-16.62357-45.112-22.62671-53.614,12.427-135.90166,18.81551-135.90166,22.62671" fill="url(#a)"/><path d="M59.49317,95.35964v22.62671c0,3.814,82.28839,10.20181,135.90166,22.6267,25.8991-6.00314,45.112-13.41269,45.112-22.6267V95.35964c0-9.20907-19.2129-16.62355-45.112-22.62671-53.614,12.427-135.90166,18.81552-135.90166,22.62671" fill="url(#b)"/><path d="M59.49317,140.613v67.88012c0-5.65667,181.01366-16.97,181.01366-45.25341V95.35964c0,28.28338-181.01366,39.59674-181.01366,45.25341" fill="url(#c)"/><path d="M59.49317,50.10623v67.88012c0-5.65668,181.01366-16.97,181.01366-45.25342V4.85281c0,28.28339-181.01366,39.59674-181.01366,45.25342" fill="url(#d)"/><path d="M59.49317,231.11988V299c0-5.65668,181.01366-16.97,181.01366-45.25341V185.86647c0,28.28338-181.01366,39.59673-181.01366,45.25341" fill="url(#e)"/></svg>