<svg xmlns="http://www.w3.org/2000/svg" xmlns:xlink="http://www.w3.org/1999/xlink" viewBox="0 0 300 300"><defs><linearGradient id="a" x1="-1710.37721" y1="-946.60794" x2="-1704.59186" y2="-913.7978" gradientTransform="matrix(-9.76563, 0, 0, 9.76563, -16524.4879, 9234.43778)" gradientUnits="userSpaceOnUse"><stop offset="0" stop-color="#faae42"/><stop offset="1" stop-color="#ef3e31"/></linearGradient><linearGradient id="b" x1="16.56578" y1="300.51495" x2="12.32898" y2="276.48695" gradientTransform="matrix(9.76563, 0, 0, -9.76563, -8.76563, 2940.45313)" gradientUnits="userSpaceOnUse"><stop offset="0" stop-color="#e39f3a"/><stop offset="1" stop-color="#d33929"/></linearGradient></defs><title>Swift logo 300X300</title><path d="M66.86844.89h165.6789a69.84148,69.84148,0,0,1,23.48481,3.97255,66.345,66.345,0,0,1,42.76339,52.11057,80.58383,80.58383,0,0,1,.81789,12.96922V231.53185a75.68578,75.68578,0,0,1-1.28524,15.42285,66.46748,66.46748,0,0,1-44.98334,50.00746A70.24128,70.24128,0,0,1,232.43053,300c-3.15468,0-166.02942,0-168.483-.11685a66.67109,66.67109,0,0,1-33.64988-11.09978A67.52614,67.52614,0,0,1,7.51384,262.61125,65.93245,65.93245,0,0,1,.854,233.51814V67.37189A62.02282,62.02282,0,0,1,7.04644,38.74613a66.34207,66.34207,0,0,1,22.55009-26.289A65.44627,65.44627,0,0,1,63.12956,1.1237,19.48686,19.48686,0,0,1,66.86844.89Z" fill="url(#a)"/><path d="M252.76062,245.55263a45.64332,45.64332,0,0,0-3.5052-4.79044,49.6279,49.6279,0,0,0-10.04823-9.11351,30.76113,30.76113,0,0,0-15.77338-5.37464,28.55786,28.55786,0,0,0-11.684,1.86944,76.14574,76.14574,0,0,0-10.86611,5.02412c-4.0894,2.10312-8.17879,4.20624-12.50186,5.95884a93.95886,93.95886,0,0,1-16.00706,4.90727,104.04789,104.04789,0,0,1-20.79749,1.63575,140.55613,140.55613,0,0,1-36.92139-5.60832,139.66578,139.66578,0,0,1-30.02784-12.96923A154.82687,154.82687,0,0,1,61.377,210.61749a169.9111,169.9111,0,0,1-16.59126-16.47443c-3.50519-4.08939-6.89355-8.41246-10.04822-12.85238a54.49577,54.49577,0,0,1-3.5052-5.49147L.38657,142.4999V67.13821A66.17028,66.17028,0,0,1,66.51791.89H125.522l43.6981,44.39914c98.61282,67.06606,66.71556,141.02568,66.71556,141.02568S263.97725,217.86159,252.76062,245.55263Z" fill="url(#b)"/><path d="M169.45381,45.28916c98.61283,67.06606,66.71553,141.02568,66.71553,141.02568s28.04156,31.6636,16.7081,59.35464c0,0-11.56713-19.39542-30.96255-19.39542-18.69438,0-29.67731,19.39542-67.29974,19.39542-83.77416,0-123.38286-69.98706-123.38286-69.98706,75.47853,49.65693,127.0049,14.48813,127.0049,14.48813C124.2368,170.42463,51.91294,76.018,51.91294,76.018c62.97668,53.62948,90.20035,67.7671,90.20035,67.7671C125.87255,130.34856,80.305,64.68458,80.305,64.68458c36.454,36.92138,108.89473,88.44775,108.89473,88.44775C209.76355,96.11448,169.45381,45.28916,169.45381,45.28916Z" fill="#fff"/></svg>