<svg xmlns="http://www.w3.org/2000/svg" viewBox="0 0 300 300"><title>Java logo 300X300</title><path d="M222.54,236.57309h-1.10964v-.63228h2.98848v.63228h-1.10311v3.1547H222.54Zm5.96063.16472h-.01744l-1.10039,2.9911h-.50335l-1.09277-2.9911h-.01307v2.9911h-.73159v-3.787h1.07643l1.01323,2.6816,1.01-2.6816h1.07261v3.787h-.71417Z" fill="#e76f00"/><path d="M123.16544,159.13579s-7.72344,4.57288,5.4965,6.12029c16.0156,1.86021,24.201,1.59343,41.85028-1.80753a72.3145,72.3145,0,0,0,11.12049,5.528c-39.56505,17.26436-89.54353-1-58.46728-9.84072m-4.83463-22.52887s-8.66259,6.52849,4.56717,7.92171c17.10836,1.797,30.61921,1.944,53.99816-2.63946a23.93105,23.93105,0,0,0,8.31884,5.163c-47.83706,14.24167-101.11832,1.12312-66.88417-10.44525" fill="#5382a1"/><path d="M159.08831,98.39048c9.74881,11.4275-2.56086,21.71135-2.56086,21.71135s24.7528-13.01039,13.385-29.3025c-10.61768-15.194-18.76-22.7424,25.31935-48.7704.00055-.00055-69.19009,17.59326-36.14349,56.36156" fill="#e76f00"/><path d="M211.41627,175.79949s5.7155,4.79528-6.29456,8.50407c-22.83748,7.04374-95.052,9.17073-115.11291.28119-7.21138-3.19465,6.312-7.62721,10.56593-8.5573a26.95989,26.95989,0,0,1,6.97169-.797c-8.01978-5.752-51.8366,11.29384-22.25677,16.17619,80.66848,13.31933,147.05149-5.99771,126.12662-15.60716m-84.53674-62.53505s-36.73291,8.88288-13.008,12.10857c10.01737,1.36549,29.98675,1.05656,48.58718-.53022,15.20175-1.30559,30.46668-4.08093,30.46668-4.08093a64.1198,64.1198,0,0,0-9.23838,5.03267c-37.30163,9.9888-109.36146,5.34159-88.61636-4.87515,17.54416-8.6344,31.80893-7.65493,31.80893-7.65493m65.89436,37.50039c37.91883-20.06134,20.3872-39.34066,8.14944-36.74279a27.98916,27.98916,0,0,0-4.33674,1.18633,6.94478,6.94478,0,0,1,3.23962-2.54461c24.20916-8.66546,42.82757,25.55768-7.815,39.11271a3.34344,3.34344,0,0,0,.76264-1.01164" fill="#5382a1"/><path d="M169.91245,0s21,21.38745-19.91763,54.27672c-32.81181,26.38185-7.48211,41.42439-.01361,58.61166C130.829,95.294,116.77336,79.80666,126.203,65.392,140.04282,44.23245,178.38547,33.97355,169.91245,0" fill="#e76f00"/><path d="M130.60561,205.1264c36.39734,2.37214,92.2896-1.31611,93.61279-18.85,0,0-2.544,6.64663-30.08045,11.9261-31.06536,5.95167-69.3813,5.25729-92.10656,1.44259.00109-.00112,4.6527,3.91952,28.57422,5.48135" fill="#5382a1"/><path d="M124.64062,272.12678c-3.43355,3.03214-7.05994,4.73428-10.31427,4.73428-4.64506,0-7.15472-2.8358-7.15472-7.38427,0-4.92008,2.68942-8.51738,13.47652-8.51738h3.99192l.00055,11.16738m9.47425,10.88342V249.32114c0-8.60668-4.821-14.28493-16.44485-14.28493a42.67335,42.67335,0,0,0-17.56159,3.88182l1.39455,5.96333a40.186,40.186,0,0,1,13.561-2.74484c6.696,0,9.57667,2.74484,9.57667,8.41976v4.25842h-3.342c-16.2689,0-23.60775,6.42976-23.60775,16.08025,0,8.32936,4.83627,13.06365,13.94228,13.06365,5.85332,0,10.22274-2.46088,14.30726-6.06149l.74141,5.11418,7.43309-.00112Zm31.61882,0H153.91757l-14.2212-47.12093h10.31971l8.82383,28.95087,1.96163,8.70706a183.718,183.718,0,0,0,9.20135-37.65793H180.041c-2.69,15.51619-7.52951,32.54761-14.30727,47.12093m45.33067-10.88339c-3.44008,3.03214-7.07246,4.73428-10.32734,4.73428-4.63689,0-7.15308-2.8358-7.15308-7.38427,0-4.92008,2.69487-8.51738,13.48142-8.51738h3.999v11.16738m9.47316,10.88342V249.32114c0-8.60668-4.83246-14.28493-16.44377-14.28493A42.67024,42.67024,0,0,0,186.5278,238.918l1.39293,5.96333a40.24947,40.24947,0,0,1,13.5675-2.74484c6.69113,0,9.57613,2.74484,9.57613,8.41976v4.25842h-3.348c-16.27326,0-23.60938,6.42976-23.60938,16.08025,0,8.32936,4.83246,13.06365,13.93684,13.06365,5.85713,0,10.22492-2.46088,14.316-6.06149l.74413,5.11418,7.43363-.00112Zm-133.235,8.00154A24.93846,24.93846,0,0,1,75.46348,300l-4.67776-5.60447a19.7888,19.7888,0,0,0,8.20119-7.82244c1.25292-2.54073,1.77152-5.81523,1.77152-13.646V219.13124H90.82429V272.19c-.00055,10.46855-.82257,14.69756-3.5218,18.82174" fill="#e76f00"/></svg>